<?xml version="1.0" encoding="utf-8"?>
<!-- Svg Vector Icons : http://www.onlinewebfonts.com/icon -->
<!DOCTYPE svg PUBLIC "-//W3C//DTD SVG 1.1//EN" "http://www.w3.org/Graphics/SVG/1.1/DTD/svg11.dtd">
<svg version="1.1" xmlns="http://www.w3.org/2000/svg" xmlns:xlink="http://www.w3.org/1999/xlink" x="0px" y="0px" viewBox="0 0 1000 1000" enable-background="new 0 0 1000 1000" xml:space="preserve">
<metadata> Svg Vector Icons : http://www.onlinewebfonts.com/icon </metadata>
<g><g transform="translate(0.000000,511.000000) scale(0.100000,-0.100000)"><path d="M4819.4,4996.6c-68.7-12.3-203.5-61.3-304.1-110.3c-154.5-78.5-208.4-90.7-380.1-98.1c-632.7-24.5-1182-524.8-1356.1-1238.3c-49-193.7-66.2-784.7-29.4-951.4c17.2-73.6,12.3-83.4-51.5-105.4c-88.3-31.9-149.6-117.7-149.6-210.9c0-139.8,122.6-774.9,156.9-831.3c34.3-49,166.8-107.9,250.1-107.9c12.3,0,39.2-58.8,56.4-127.5c39.2-161.8,215.8-541.9,323.7-698.9c44.1-63.8,137.3-179,208.4-252.6L3671.8,129l-34.3-318.8c-17.2-174.1-34.3-343.3-34.3-372.7c0-46.6-41.7-76-237.9-169.2c-642.5-304.1-958.8-446.3-1314.4-588.5C1170.6-1675.8,748.8-1972.5,560-2369.7c-112.8-237.9-122.6-338.4-115.2-1157.4c7.4-691.5,12.3-765.1,53.9-853.4c68.7-137.3,196.2-255,355.6-331l137.3-63.8l2685.1-7.4l2685.1-7.4l-100.6,105.4c-434,458.6-647.4,983.3-647.4,1603.7c0,757.7,370.3,1446.8,1010.3,1875.9l218.2,144.7l-179,83.4c-595.9,277.1-752.8,358-762.6,399.7c-7.4,24.5-27,193.7-44.2,377.6l-29.4,335.9L5967,290.9c274.7,301.6,485.5,681.7,519.9,934.3c14.7,110.4,19.6,115.2,112.8,130c191.3,31.9,213.3,76,291.8,537c46.6,289.4,61.3,429.1,46.6,470.8c-19.6,49-130,139.8-203.5,164.3c-12.3,2.5-7.4,166.8,7.4,365.4c41.7,549.3-31.9,966.2-193.7,1123.1c-34.3,34.3-112.8,125.1-171.7,203.5C5974.4,4748.9,5304.9,5082.4,4819.4,4996.6z"/><path d="M7661.4-1418.3c-392.4-63.8-689.1-215.8-971-500.2c-171.7-171.7-232.9-252.6-313.9-419.3c-142.2-296.7-181.4-488-169.2-831.3c17.1-461,154.5-770,485.5-1105.9c326.1-328.6,708.7-490.4,1164.8-492.9c402.2-2.5,730.7,105.4,1039.7,338.4c497.8,375.2,750.4,1037.3,630.2,1652.8c-149.6,760.2-804.3,1326.6-1569.4,1360.9C7835.5-1410.9,7703.1-1413.4,7661.4-1418.3z M8095.5-2161.3c66.2-73.6,68.7-85.8,68.7-343.3v-267.3l296.7-9.8l296.7-7.4l71.1-80.9c127.5-142.2,83.4-375.2-85.8-456.1c-58.8-27-152-39.2-331-39.2h-247.7V-3635c0-309-27-392.3-152-456.1c-93.2-49-247.7-34.3-318.8,31.9c-88.3,78.5-117.7,188.8-117.7,448.8v245.2h-233c-274.6,0-382.5,34.3-453.6,152c-76,120.2-54,252.6,58.8,355.6l88.3,80.9h269.7h269.7v220.7c0,252.6,31.9,358,137.3,438.9C7818.4-2033.8,7999.8-2055.8,8095.5-2161.3z"/></g></g>
</svg>